# xmcd CD database file
#
# Track frame offsets:
#	213
#	19516
#	38138
#	55480
#	73203
#	96793
#	114839
#	131066
#	150430
#	168488
#	184856
#	201663
#
# Disc length: 2992 seconds
#
# Revision: 0
# Processed by: cddbd v1.5.2PL0 Copyright (c) Steve Scherf et al.
# Submitted via: Feurio! 1.68 - http://www.feurio.com
#
DISCID=a60bae0c
DTITLE=Wade Bowen - If We Ever Make It Home
DYEAR=1900
DGENRE=Country Rock
TTITLE0=You Had Me At My Best
TTITLE1=If We Ever Make It Home
TTITLE2=Turn On The Lights
TTITLE3=Ghost In This Town
TTITLE4=Why Makes Perfect Sense
TTITLE5=Trouble
TTITLE6=Nobody´s Fool
TTITLE7=Into The Arms Of You
TTITLE8=From Bad To Good
TTITLE9=Missing You
TTITLE10=Daddy And The Devel
TTITLE11=Somewhere Beautiful
EXTD=
EXTT0=
EXTT1=
EXTT2=
EXTT3=
EXTT4=
EXTT5=
EXTT6=
EXTT7=
EXTT8=
EXTT9=
EXTT10=
EXTT11=
PLAYORDER=
